<svg width="444" height="207" viewBox="0 0 444 207" fill="none" xmlns="http://www.w3.org/2000/svg">
<rect width="444" height="207" fill="#E5E5E5"/>
<rect width="444" height="207" fill="black"/>
<path d="M45.1562 127.334H78.8477V135H35.7324V63.9062H45.1562V127.334ZM141.006 101.748C141.006 108.714 139.834 114.801 137.49 120.01C135.146 125.186 131.826 129.141 127.529 131.875C123.232 134.609 118.219 135.977 112.49 135.977C106.891 135.977 101.927 134.609 97.5977 131.875C93.2682 129.108 89.8991 125.186 87.4902 120.107C85.1139 114.997 83.8932 109.089 83.8281 102.383V97.2559C83.8281 90.4199 85.0163 84.3815 87.3926 79.1406C89.7689 73.8997 93.1217 69.8958 97.4512 67.1289C101.813 64.3294 106.794 62.9297 112.393 62.9297C118.089 62.9297 123.102 64.3132 127.432 67.0801C131.794 69.8145 135.146 73.8021 137.49 79.043C139.834 84.2513 141.006 90.3223 141.006 97.2559V101.748ZM131.68 97.1582C131.68 88.7272 129.987 82.2656 126.602 77.7734C123.216 73.2487 118.48 70.9863 112.393 70.9863C106.468 70.9863 101.797 73.2487 98.3789 77.7734C94.9935 82.2656 93.252 88.5156 93.1543 96.5234V101.748C93.1543 109.919 94.8633 116.348 98.2812 121.035C101.732 125.69 106.468 128.018 112.49 128.018C118.545 128.018 123.232 125.82 126.553 121.426C129.873 116.999 131.582 110.667 131.68 102.432V97.1582ZM207.559 125.674C205.15 129.124 201.781 131.712 197.451 133.438C193.154 135.13 188.141 135.977 182.412 135.977C176.618 135.977 171.475 134.626 166.982 131.924C162.49 129.189 159.007 125.316 156.533 120.303C154.092 115.29 152.839 109.479 152.773 102.871V96.6699C152.773 85.9603 155.264 77.6595 160.244 71.7676C165.257 65.8757 172.288 62.9297 181.338 62.9297C188.76 62.9297 194.733 64.834 199.258 68.6426C203.783 72.4186 206.549 77.7897 207.559 84.7559H198.184C196.426 75.3483 190.827 70.6445 181.387 70.6445C175.104 70.6445 170.335 72.8581 167.08 77.2852C163.857 81.6797 162.23 88.0599 162.197 96.4258V102.236C162.197 110.212 164.02 116.559 167.666 121.279C171.312 125.967 176.243 128.311 182.461 128.311C185.977 128.311 189.053 127.92 191.689 127.139C194.326 126.357 196.507 125.039 198.232 123.184V107.217H181.777V99.5996H207.559V125.674ZM277.92 101.748C277.92 108.714 276.748 114.801 274.404 120.01C272.061 125.186 268.74 129.141 264.443 131.875C260.146 134.609 255.133 135.977 249.404 135.977C243.805 135.977 238.841 134.609 234.512 131.875C230.182 129.108 226.813 125.186 224.404 120.107C222.028 114.997 220.807 109.089 220.742 102.383V97.2559C220.742 90.4199 221.93 84.3815 224.307 79.1406C226.683 73.8997 230.036 69.8958 234.365 67.1289C238.727 64.3294 243.708 62.9297 249.307 62.9297C255.003 62.9297 260.016 64.3132 264.346 67.0801C268.708 69.8145 272.061 73.8021 274.404 79.043C276.748 84.2513 277.92 90.3223 277.92 97.2559V101.748ZM268.594 97.1582C268.594 88.7272 266.901 82.2656 263.516 77.7734C260.13 73.2487 255.394 70.9863 249.307 70.9863C243.382 70.9863 238.711 73.2487 235.293 77.7734C231.908 82.2656 230.166 88.5156 230.068 96.5234V101.748C230.068 109.919 231.777 116.348 235.195 121.035C238.646 125.69 243.382 128.018 249.404 128.018C255.459 128.018 260.146 125.82 263.467 121.426C266.787 116.999 268.496 110.667 268.594 102.432V97.1582ZM339.395 152.871C333.633 151.243 329.287 148.558 326.357 144.814C323.46 141.104 322.012 136.188 322.012 130.068V120.352C322.012 112.441 318.561 108.486 311.66 108.486V101.406C318.561 101.406 322.012 97.4674 322.012 89.5898V79.4336C322.077 73.4766 323.525 68.6751 326.357 65.0293C329.222 61.3509 333.568 58.6816 339.395 57.0215L341.25 62.6367C334.447 64.8177 331.045 70.498 331.045 79.6777V89.541C331.045 96.9303 328.327 102.074 322.891 104.971C328.327 107.9 331.045 113.092 331.045 120.547V130.605C331.143 139.557 334.544 145.107 341.25 147.256L339.395 152.871ZM351.064 141.104H343.301L372.988 63.9062H380.703L351.064 141.104ZM384.561 147.256C391.169 145.14 394.587 139.753 394.814 131.094V120.352C394.814 112.832 397.76 107.705 403.652 104.971C397.76 102.301 394.814 97.1745 394.814 89.5898V79.6777C394.814 70.498 391.413 64.8177 384.609 62.6367L386.465 57.0215C392.227 58.6491 396.556 61.3021 399.453 64.9805C402.35 68.6263 403.815 73.4603 403.848 79.4824V89.7363C403.848 97.5163 407.298 101.406 414.199 101.406V108.486C407.298 108.486 403.848 112.441 403.848 120.352V130.215C403.848 136.335 402.367 141.234 399.404 144.912C396.475 148.59 392.161 151.243 386.465 152.871L384.561 147.256Z" fill="white"/>
</svg>
